<?xml version="1.0" standalone="no"?>
<svg version="1.0" xmlns="http://www.w3.org/2000/svg"
 width="1024.000000pt" height="1024.000000pt" viewBox="0 0 1024.000000 1024.000000"
 preserveAspectRatio="xMidYMid meet">

<rect width="100%" height="100%" fill="#101010"/>

<g transform="translate(0.000000,1024.000000) scale(0.100000,-0.100000)"
fill="white" stroke="white">
<path d="M5240 7124 c-25 -9 -62 -32 -84 -52 -65 -62 -75 -98 -96 -335 -10
-117 -28 -313 -39 -437 -12 -124 -32 -358 -46 -520 -13 -162 -31 -367 -39
-455 -9 -88 -20 -216 -26 -285 -6 -69 -21 -255 -35 -415 -30 -358 -58 -646
-62 -641 -2 1 -19 79 -37 172 -100 490 -200 942 -219 986 -74 176 -306 189
-390 22 -20 -38 -41 -120 -118 -444 -88 -376 -140 -584 -149 -593 -4 -4 -12
16 -18 45 -83 395 -255 1202 -263 1231 -5 21 -26 56 -45 77 -75 83 -192 86
-270 6 -37 -39 -47 -64 -129 -307 -159 -475 -174 -510 -226 -536 -18 -10 -126
-13 -422 -13 -440 0 -450 -1 -487 -62 -40 -66 -16 -149 54 -182 32 -15 78 -17
483 -14 443 3 449 3 498 26 28 13 65 37 84 55 68 65 94 122 203 452 28 83 52
152 53 154 6 6 24 -73 90 -389 127 -615 146 -683 209 -757 38 -45 119 -83 177
-83 98 0 192 57 235 142 24 46 103 346 189 715 21 90 40 161 42 159 12 -12
179 -826 243 -1186 48 -270 49 -275 81 -323 51 -77 137 -105 217 -72 89 38
119 95 137 264 29 261 179 1931 238 2651 19 223 36 394 40 380 3 -14 12 -110
21 -215 9 -104 27 -300 41 -435 13 -135 45 -459 70 -720 79 -819 84 -859 133
-914 9 -10 36 -27 59 -38 34 -15 50 -17 84 -9 85 19 114 58 181 243 24 65 46
118 49 118 3 0 11 -30 18 -67 28 -151 92 -409 112 -447 69 -134 204 -194 331
-147 91 35 147 111 223 299 53 132 77 190 110 262 18 41 37 86 41 100 3 14 17
48 30 75 12 28 32 75 44 105 11 30 49 117 83 193 55 124 63 137 75 120 7 -10
63 -106 124 -213 236 -414 265 -450 403 -486 38 -11 152 -14 468 -14 459 0
460 0 511 61 24 28 27 40 23 77 -3 26 -14 53 -28 69 -48 52 -58 53 -484 53
-444 0 -432 -2 -486 73 -17 23 -90 149 -162 281 -73 131 -149 257 -169 281
-22 24 -59 51 -88 64 -120 52 -226 34 -314 -53 -59 -58 -66 -72 -171 -332 -42
-104 -96 -236 -120 -294 -24 -58 -76 -184 -115 -280 -40 -96 -75 -179 -80
-183 -13 -15 -83 309 -155 728 -26 148 -53 282 -61 298 -44 84 -176 89 -232
10 -10 -16 -43 -100 -72 -188 -29 -88 -56 -163 -59 -167 -6 -7 -105 949 -181
1747 -30 312 -37 353 -65 401 -33 56 -87 100 -141 113 -55 14 -69 13 -124 -5z"/>
<path d="M4990 2953 c-56 -20 -89 -92 -69 -150 15 -47 255 -291 316 -322 100
-50 163 -19 344 165 75 77 140 150 144 162 21 71 -41 152 -118 152 -55 0 -80
-18 -193 -136 l-94 -98 -118 117 c-112 110 -121 117 -158 116 -21 0 -46 -3
-54 -6z"/>
</g>
</svg>
